<svg width="24" height="24" viewBox="0 0 24 24" fill="none" xmlns="http://www.w3.org/2000/svg">
<g clip-path="url(#clip0)">
<path d="M15.2267 7.32203H15.3058L15.2626 7.28607L18.1466 4.40204L18.1538 4.35169C15.7229 2.20845 12.357 1.46767 9.25722 2.40264C6.15743 3.33761 3.75527 5.8045 2.89941 8.92586C2.94976 8.89709 3.0001 8.88271 3.05045 8.86833C4.12207 8.1635 5.39507 7.76074 6.73999 7.75355C7.1859 7.75355 7.63181 7.7967 8.06333 7.87582C8.08491 7.86143 8.10649 7.85424 8.12087 7.86143C9.97643 5.81888 13.0978 5.58873 15.241 7.32203H15.2267Z" fill="#EA4335"/>
<path d="M21.0156 8.91866C20.5337 7.1566 19.5484 5.56715 18.1819 4.35168L15.2547 7.27886C16.4918 8.28576 17.1966 9.81048 17.1678 11.4071V11.925C20.6416 11.925 20.6416 17.1392 17.1678 17.1392H11.9536L11.9464 17.1464V21.2819H11.9248L11.9536 21.3106H17.1678C20.1597 21.3322 22.8064 19.3975 23.6911 16.5423C24.5757 13.6942 23.4897 10.5944 21.0156 8.91866Z" fill="#4285F4"/>
<path d="M6.73878 21.2819H11.9459V17.1105H6.73878C6.37199 17.1105 6.00519 17.0314 5.66716 16.8732L2.65368 19.8867L2.64648 19.9154C3.82599 20.8072 5.2644 21.2891 6.73878 21.2819Z" fill="#34A853"/>
<path d="M6.73828 7.75345C3.84706 7.77503 1.27948 9.62339 0.358893 12.3636C-0.568886 15.111 0.358893 18.1316 2.65317 19.9009L5.67385 16.8802C4.01247 16.1322 3.61691 13.953 4.90429 12.6656C6.19168 11.3783 8.37088 11.7738 9.11886 13.4352L12.1395 10.4145C10.8522 8.72438 8.85275 7.73907 6.73828 7.75345Z" fill="#FBBC05"/>
</g>
<defs>
<clipPath id="clip0">
<rect width="24" height="19.3108" fill="white" transform="translate(0 2)"/>
</clipPath>
</defs>
</svg>
